<?xml version="1.0" encoding="utf-8"?>
<!-- Generator: Adobe Illustrator 27.5.0, SVG Export Plug-In . SVG Version: 6.00 Build 0)  -->
<svg version="1.1" xmlns="http://www.w3.org/2000/svg" xmlns:xlink="http://www.w3.org/1999/xlink" x="0px" y="0px"
	 viewBox="0 0 500 500" style="enable-background:new 0 0 500 500;" xml:space="preserve">
<g id="Floor">
	<path id="SUELO" style="fill:#EBEBEB;" d="M110.044,426.008c80.058,38.157,209.857,38.157,289.914,0
		c80.057-38.156,80.057-100.021-0.001-138.178c-80.057-38.157-209.856-38.157-289.914,0
		C29.985,325.986,29.986,387.851,110.044,426.008z"/>
</g>
<g id="Cloud">
	<path id="nube_1_" style="fill:#EBEBEB;" d="M368.08,142.3l3.675-2.83v-8.096c0-6.418,5.118-13.867,10.677-17.076l0,0
		c5.557-3.209,10.063-0.608,10.063,5.81v1.176c1.261-1.959,2.889-3.645,4.669-4.673l0,0c4-2.309,7.242-0.437,7.242,4.181v0.535
		l7.36-4.25c2.634-1.52,4.769-0.288,4.769,2.753c0,3.041-2.135,6.739-4.769,8.26l-43.687,25.223
		c-2.634,1.521-4.769,0.288-4.769-2.753C363.311,147.518,365.446,143.82,368.08,142.3z"/>
</g>
<g id="Plants">
	<g id="HOJAS">
		<g id="XMLID_169_">
			<path id="XMLID_173_" style="fill:#27DEBF;" d="M104.087,362.443c-0.515-0.096-1.07-0.256-1.689-0.418
				c-2.087-0.548-4.149-1.19-6.166-1.955c-4.015-1.52-7.865-3.519-11.289-6.121c-1.848-1.404-3.591-3.008-4.784-4.998
				c-1.193-1.989-1.793-4.414-1.25-6.671c0.543-2.255,2.37-4.254,4.659-4.629c1.074-0.176,2.182-0.005,3.255-0.187
				c1.072-0.182,2.195-0.891,2.304-1.974c0.06-0.608-0.21-1.193-0.478-1.742c-1.78-3.637-3.758-7.205-4.97-11.069
				c-1.146-3.651-1.236-6.815-0.205-10.521c0.941-3.382,2.698-6.568,5.384-8.873c1.196-1.027,2.865-1.851,4.311-1.221
				c0.945,0.412,1.556,1.369,1.837,2.362c0.28,0.992,0.283,2.037,0.345,3.066c0.134,2.211,0.555,4.404,1.248,6.508
				c0.42,1.274,1.004,2.595,2.141,3.305c1.86,1.164,4.419,0.253,6.405,1.189c1.85,0.874,2.652,3.105,2.749,5.149
				c0.095,2.043-0.328,4.097-0.093,6.129c0.073,0.633,0.219,1.28,0.592,1.796c0.472,0.655,1.24,1.015,1.891,1.49
				c1.929,1.408,2.841,3.892,2.897,6.279c0.056,2.388-0.629,4.725-1.35,7.001c-1.017,3.213-1.482,6.295-1.985,9.583
				c-0.271,1.771-1.226,4.056-2.446,5.407C106.289,362.556,105.295,362.671,104.087,362.443z"/>
			<path style="fill:#FFFFFF;" d="M107.413,360.778c-0.118,0-0.232-0.06-0.297-0.169c-11.663-19.681-15.361-33.544-16.41-41.708
				c-1.143-8.899,0.477-13.073,0.547-13.246c0.071-0.177,0.271-0.262,0.448-0.191c0.176,0.071,0.262,0.271,0.191,0.448
				c-0.026,0.066-1.627,4.26-0.492,12.985c1.052,8.088,4.735,21.83,16.309,41.361c0.097,0.164,0.043,0.375-0.121,0.472
				C107.534,360.763,107.473,360.778,107.413,360.778z"/>
			<path style="fill:#FFFFFF;" d="M101.174,349.366c-0.013,0-0.025-0.001-0.038-0.002c-14.216-1.567-18.24-6.236-18.404-6.433
				c-0.121-0.146-0.101-0.363,0.045-0.485c0.146-0.121,0.363-0.101,0.484,0.044l0,0c0.039,0.047,4.061,4.659,17.95,6.19
				c0.189,0.021,0.325,0.191,0.305,0.38C101.496,349.235,101.347,349.366,101.174,349.366z"/>
			<path style="fill:#FFFFFF;" d="M97.162,340.509c-0.073,0-0.146-0.023-0.208-0.07c-0.151-0.115-0.181-0.331-0.065-0.482
				c4.512-5.926,4.805-15.648,4.807-15.745c0.005-0.19,0.154-0.34,0.353-0.336c0.19,0.005,0.34,0.163,0.335,0.353
				c-0.01,0.407-0.302,10.044-4.948,16.145C97.368,340.462,97.266,340.509,97.162,340.509z"/>
		</g>
		<g id="XMLID_166_">
			<path id="XMLID_168_" style="fill:#27DEBF;" d="M388.599,301.661c1.377-9.3,1.396-20.649-5.434-37.228
				c-6.83-16.579-4.703-25.275,2.618-27.639c7.32-2.363,23.539,10.218,22.934,31.382c-0.583,20.44-14.398,37.322-14.398,37.322
				L388.599,301.661z"/>
			<path id="XMLID_90_" style="opacity:0.1;" d="M388.599,301.661c1.377-9.3,1.396-20.649-5.434-37.228
				c-6.83-16.579-4.703-25.275,2.618-27.639c7.32-2.363,23.539,10.218,22.934,31.382c-0.583,20.44-14.398,37.322-14.398,37.322
				L388.599,301.661z"/>
			<path style="fill:#FFFFFF;" d="M392.173,304.402c-0.046,0-0.092-0.009-0.137-0.028c-0.175-0.076-0.255-0.278-0.179-0.453
				c0.076-0.175,7.548-17.636,7.004-33.501c-0.626-18.253-10.732-28.291-10.834-28.391c-0.136-0.133-0.139-0.351-0.007-0.487
				c0.133-0.137,0.351-0.139,0.487-0.007c0.104,0.101,10.407,10.317,11.043,28.861c0.549,16.022-6.984,33.622-7.06,33.798
				C392.434,304.324,392.307,304.402,392.173,304.402z"/>
		</g>
		<g id="XMLID_162_">
			<path id="XMLID_165_" style="fill:#27DEBF;" d="M389.006,309.914c0,0,3.86-22.489,17.561-35.408
				c13.701-12.918,36.545-15.375,43.698-8.472c7.154,6.903,2.575,13.608-7.512,15.932c-11.408,2.629-18.397,7.237-11.408,10.749
				c6.499,3.266,5.766,10.329-1.005,13.724c-10.8,5.416-30.297,0.26-35.048,10.915L389.006,309.914z"/>
			<path style="fill:#FFFFFF;" d="M391.905,314.67c-0.039,0-0.08-0.007-0.119-0.021c-0.178-0.066-0.27-0.264-0.204-0.442
				c3.36-9.125,8.177-17.12,14.316-23.762c4.913-5.315,10.677-9.779,17.134-13.27c10.996-5.944,20.328-7.014,20.421-7.024
				c0.186-0.019,0.359,0.116,0.379,0.305c0.021,0.189-0.116,0.359-0.305,0.379c-0.092,0.01-9.313,1.07-20.194,6.959
				c-10.033,5.429-23.573,16.195-31.106,36.65C392.176,314.584,392.045,314.67,391.905,314.67z"/>
			<path style="fill:#FFFFFF;" d="M398.847,300.532c-0.142,0-0.276-0.089-0.325-0.231c-0.063-0.18,0.032-0.376,0.211-0.439
				c11.688-4.086,28.451-1.945,28.618-1.923c0.189,0.025,0.321,0.198,0.297,0.386c-0.025,0.189-0.198,0.321-0.386,0.297
				c-0.167-0.022-16.771-2.141-28.301,1.89C398.923,300.526,398.885,300.532,398.847,300.532z"/>
		</g>
	</g>
</g>
<g id="Social_Media">
	<g id="REDES_SOCIALES_1_">
		<g>
			<path style="fill:#27DEBF;" d="M118.446,70.004c0-2.841-1.994-6.295-4.454-7.715l-3.627-2.094c-2.46-1.421-6.449-1.421-8.909,0
				l-28.699,16.57c-1.276,0.737-2.424,2.023-3.236,3.485c-0.655,1.18-1.093,2.474-1.195,3.691c-0.015,0.182-0.023,0.362-0.023,0.539
				v33.139c0,2.841,1.995,6.295,4.454,7.715l3.627,2.094c0.147,0.085,0.299,0.164,0.456,0.238c0.056,0.027,0.116,0.05,0.174,0.076
				c0.101,0.045,0.202,0.09,0.307,0.13c0.077,0.03,0.156,0.057,0.235,0.084c0.088,0.031,0.175,0.062,0.265,0.09
				c0.094,0.03,0.19,0.057,0.286,0.083c0.074,0.02,0.148,0.041,0.223,0.06c0.114,0.028,0.228,0.054,0.344,0.079
				c0.055,0.011,0.11,0.023,0.166,0.033c0.138,0.027,0.276,0.05,0.416,0.071c0.026,0.004,0.052,0.007,0.078,0.011
				c2.069,0.293,4.344-0.023,5.96-0.956l28.699-16.57c2.46-1.42,4.455-4.874,4.455-7.715L118.446,70.004z"/>
			<path style="opacity:0.4;fill:#FFFFFF;" d="M82.142,87.327c-0.504,0.872-0.887,1.814-1.104,2.745
				c0.564-2.419,2.256-4.916,4.254-6.07l28.699-16.57c2.46-1.42,4.454-0.269,4.454,2.572c0-2.841-1.994-6.295-4.454-7.715
				l-3.627-2.094c-2.46-1.421-6.449-1.421-8.909,0l-28.699,16.57c-1.276,0.737-2.424,2.023-3.236,3.485
				c0.03-0.053,0.056-0.107,0.087-0.16L82.142,87.327z"/>
			<path style="opacity:0.1;" d="M84.369,127.85c-0.072,0.024-0.141,0.04-0.212,0.059c-0.007,0.002-0.015,0.004-0.022,0.006
				c-0.119,0.032-0.236,0.057-0.351,0.076c-0.009,0.002-0.019,0.003-0.028,0.004c-0.114,0.017-0.226,0.029-0.335,0.033
				c-0.008,0-0.016,0-0.024,0.001c-0.111,0.004-0.22,0.002-0.326-0.008c-0.001,0-0.002,0-0.003,0
				c-0.429-0.039-0.813-0.184-1.136-0.427c-0.012-0.009-0.025-0.017-0.038-0.026c-0.057-0.045-0.11-0.096-0.163-0.147
				c-0.029-0.028-0.06-0.055-0.088-0.085c-0.044-0.047-0.085-0.099-0.126-0.151c-0.032-0.041-0.064-0.082-0.095-0.125
				c-0.035-0.051-0.068-0.104-0.1-0.158c-0.031-0.052-0.061-0.106-0.089-0.162c-0.027-0.054-0.053-0.109-0.078-0.166
				c-0.028-0.064-0.053-0.13-0.077-0.198c-0.02-0.057-0.04-0.113-0.058-0.172c-0.023-0.077-0.042-0.157-0.061-0.238
				c-0.013-0.057-0.028-0.113-0.039-0.173c-0.018-0.095-0.03-0.195-0.042-0.295c-0.006-0.052-0.015-0.102-0.02-0.155
				c-0.014-0.157-0.022-0.318-0.022-0.487l0-33.139c0-0.349,0.031-0.707,0.088-1.07c0.001-0.006,0.001-0.012,0.002-0.019
				c0.021-0.133,0.051-0.267,0.079-0.401c0.011-0.052,0.019-0.103,0.031-0.155c0.217-0.931,0.601-1.872,1.104-2.745l-12.536-7.238
				c-0.03,0.053-0.057,0.107-0.087,0.16c-0.655,1.18-1.093,2.474-1.195,3.691c-0.015,0.182-0.023,0.362-0.023,0.539v33.139
				c0,2.841,1.995,6.295,4.454,7.715l3.627,2.094c0.147,0.085,0.299,0.164,0.456,0.238c0.056,0.027,0.116,0.05,0.174,0.076
				c0.101,0.045,0.203,0.09,0.307,0.13c0.077,0.03,0.156,0.057,0.235,0.084c0.088,0.031,0.175,0.062,0.265,0.09
				c0.094,0.03,0.19,0.057,0.286,0.083c0.074,0.021,0.148,0.041,0.223,0.06c0.114,0.028,0.228,0.054,0.344,0.079
				c0.055,0.012,0.11,0.023,0.166,0.033c0.138,0.026,0.276,0.051,0.416,0.071c0.026,0.004,0.052,0.007,0.078,0.011
				C81.033,128.622,82.869,128.44,84.369,127.85z"/>
			<path id="XMLID_79_" style="fill:#FFFFFF;" d="M105.911,100.391c2.006-4.627,3.013-9.565,2.874-13.62
				c0.922-1.418,1.721-2.987,2.354-4.615c-0.846,0.989-1.756,1.853-2.709,2.555c0.973-1.339,1.721-3.004,2.074-4.678
				c-0.912,1.248-1.921,2.354-2.995,3.257c-0.861-0.725-2.087-0.781-3.444,0.002c-3.045,1.758-5.282,6.839-4.595,10.376
				c-3.921,2.002-7.397,1.504-9.723-0.959c-1.236,3.541-0.641,6.897,1.46,7.555c-0.773,0.414-1.502,0.551-2.138,0.447
				c-0.051,2.944,1.516,4.765,3.784,4.063c-0.664,0.624-1.391,1.098-2.129,1.336c0.599,2.154,2.341,2.966,4.406,1.825
				c-1.983,3.218-4.482,5.586-6.984,6.637c2.088,0.579,4.567,0.189,7.231-1.349C100.041,110.53,103.625,105.663,105.911,100.391"/>
		</g>
		<g>
			<path style="fill:#27DEBF;" d="M118.446,190.672c0-2.84-1.994-6.295-4.454-7.715l-3.627-2.094c-2.46-1.42-6.449-1.42-8.909,0
				l-28.699,16.57c-1.276,0.737-2.424,2.023-3.236,3.485c-0.655,1.18-1.093,2.474-1.195,3.691c-0.015,0.182-0.023,0.362-0.023,0.539
				v33.139c0,2.841,1.995,6.295,4.454,7.715l3.627,2.094c0.147,0.085,0.299,0.163,0.456,0.238c0.056,0.027,0.116,0.05,0.174,0.076
				c0.101,0.045,0.202,0.09,0.307,0.13c0.077,0.03,0.156,0.057,0.235,0.084c0.088,0.031,0.175,0.062,0.265,0.09
				c0.094,0.03,0.19,0.056,0.286,0.083c0.074,0.021,0.148,0.041,0.223,0.06c0.114,0.028,0.228,0.054,0.344,0.078
				c0.055,0.012,0.11,0.023,0.166,0.034c0.138,0.027,0.276,0.05,0.416,0.071c0.026,0.004,0.052,0.007,0.078,0.011
				c2.069,0.293,4.344-0.023,5.96-0.956l28.699-16.57c2.46-1.42,4.455-4.874,4.455-7.715L118.446,190.672z"/>
			<path style="opacity:0.4;fill:#FFFFFF;" d="M82.142,207.995c-0.504,0.872-0.887,1.814-1.104,2.745
				c0.564-2.419,2.256-4.916,4.254-6.07l28.699-16.57c2.46-1.421,4.454-0.269,4.454,2.572c0-2.84-1.994-6.295-4.454-7.715
				l-3.627-2.094c-2.46-1.42-6.449-1.42-8.909,0l-28.699,16.57c-1.276,0.737-2.424,2.023-3.236,3.485
				c0.03-0.053,0.056-0.107,0.087-0.16L82.142,207.995z"/>
			<path style="opacity:0.1;" d="M84.369,248.518c-0.072,0.024-0.141,0.04-0.212,0.059c-0.007,0.002-0.015,0.004-0.022,0.006
				c-0.119,0.032-0.236,0.057-0.351,0.076c-0.009,0.001-0.019,0.003-0.028,0.004c-0.114,0.017-0.226,0.029-0.335,0.033
				c-0.008,0-0.016,0-0.024,0.001c-0.111,0.004-0.22,0.002-0.326-0.008c-0.001,0-0.002,0-0.003,0
				c-0.429-0.039-0.813-0.184-1.136-0.427c-0.012-0.009-0.025-0.017-0.038-0.026c-0.057-0.045-0.11-0.096-0.163-0.147
				c-0.029-0.028-0.06-0.055-0.088-0.085c-0.044-0.047-0.085-0.099-0.126-0.151c-0.032-0.041-0.064-0.082-0.095-0.125
				c-0.035-0.051-0.068-0.104-0.1-0.158c-0.031-0.052-0.061-0.106-0.089-0.162c-0.027-0.054-0.053-0.109-0.078-0.166
				c-0.028-0.064-0.053-0.13-0.077-0.198c-0.02-0.056-0.04-0.113-0.058-0.172c-0.023-0.077-0.042-0.157-0.061-0.238
				c-0.013-0.057-0.028-0.113-0.039-0.172c-0.018-0.095-0.03-0.195-0.042-0.295c-0.006-0.052-0.015-0.102-0.02-0.155
				c-0.014-0.156-0.022-0.318-0.022-0.487l0-33.139c0-0.349,0.031-0.707,0.088-1.07c0.001-0.006,0.001-0.012,0.002-0.019
				c0.021-0.133,0.051-0.267,0.079-0.401c0.011-0.052,0.019-0.103,0.031-0.155c0.217-0.931,0.601-1.873,1.104-2.745l-12.536-7.238
				c-0.03,0.053-0.057,0.107-0.087,0.16c-0.655,1.18-1.093,2.474-1.195,3.691c-0.015,0.182-0.023,0.362-0.023,0.539v33.139
				c0,2.841,1.995,6.295,4.454,7.715l3.627,2.094c0.147,0.085,0.299,0.163,0.456,0.238c0.056,0.027,0.116,0.05,0.174,0.076
				c0.101,0.045,0.203,0.09,0.307,0.13c0.077,0.03,0.156,0.057,0.235,0.084c0.088,0.031,0.175,0.062,0.265,0.09
				c0.094,0.03,0.19,0.057,0.286,0.083c0.074,0.021,0.148,0.041,0.223,0.06c0.114,0.028,0.228,0.054,0.344,0.078
				c0.055,0.012,0.11,0.023,0.166,0.034c0.138,0.026,0.276,0.05,0.416,0.071c0.026,0.004,0.052,0.007,0.078,0.011
				C81.033,249.29,82.869,249.109,84.369,248.518z"/>
			<path style="fill:#FFFFFF;" d="M99.642,206.028c2.937-1.695,3.285-1.881,4.445-2.48c1.072-0.554,1.655-0.651,2.042-0.674
				c0.513-0.03,0.88,0.076,1.264,0.367c0.385,0.292,0.623,0.642,0.823,1.211c0.151,0.43,0.33,1.103,0.379,2.505
				c0.053,1.516,0.064,1.973,0.064,5.889c0,3.916-0.011,4.386-0.064,5.963c-0.049,1.458-0.229,2.338-0.379,2.941
				c-0.2,0.8-0.438,1.426-0.823,2.161c-0.385,0.735-0.751,1.265-1.264,1.827c-0.388,0.424-0.971,1-2.042,1.684
				c-1.16,0.74-1.508,0.955-4.445,2.651c-2.937,1.696-3.285,1.882-4.444,2.481c-1.072,0.554-1.655,0.651-2.042,0.674
				c-0.514,0.03-0.88-0.076-1.265-0.368c-0.385-0.29-0.623-0.641-0.823-1.211c-0.151-0.43-0.33-1.103-0.379-2.505
				c-0.052-1.516-0.064-1.973-0.064-5.89c0-3.916,0.011-4.386,0.064-5.963c0.049-1.459,0.229-2.338,0.379-2.943
				c0.199-0.799,0.438-1.426,0.823-2.161c0.385-0.735,0.751-1.265,1.265-1.827c0.387-0.424,0.97-1,2.042-1.684
				C96.357,207.94,96.705,207.724,99.642,206.028 M99.642,203.386c-2.987,1.724-3.362,1.958-4.535,2.706
				c-1.171,0.747-1.97,1.457-2.67,2.223c-0.723,0.792-1.337,1.648-1.948,2.816c-0.612,1.169-0.987,2.204-1.269,3.33
				c-0.272,1.089-0.458,2.263-0.511,3.855c-0.054,1.595-0.066,2.102-0.066,6.085c0,3.983,0.013,4.475,0.066,6.008
				c0.053,1.531,0.239,2.489,0.511,3.265c0.281,0.802,0.657,1.404,1.269,1.866c0.611,0.462,1.225,0.61,1.948,0.567
				c0.7-0.041,1.499-0.255,2.67-0.86c1.173-0.606,1.548-0.806,4.535-2.53c2.987-1.725,3.362-1.958,4.535-2.706
				c1.171-0.747,1.971-1.458,2.67-2.224c0.723-0.792,1.337-1.648,1.948-2.816c0.612-1.168,0.988-2.204,1.269-3.33
				c0.272-1.09,0.457-2.263,0.511-3.855c0.053-1.595,0.066-2.102,0.066-6.085c0-3.983-0.013-4.475-0.066-6.009
				c-0.054-1.53-0.24-2.488-0.511-3.264c-0.281-0.802-0.657-1.403-1.269-1.865c-0.611-0.463-1.225-0.61-1.948-0.567
				c-0.7,0.042-1.499,0.255-2.67,0.86C103.004,201.462,102.629,201.661,99.642,203.386 M99.642,210.521
				c-3.119,1.801-5.648,6.632-5.648,10.792c0,4.159,2.529,6.071,5.648,4.27c3.12-1.801,5.649-6.633,5.649-10.792
				C105.291,210.631,102.762,208.719,99.642,210.521 M99.642,222.941c-2.025,1.169-3.666-0.072-3.666-2.772s1.642-5.836,3.666-7.006
				c2.025-1.169,3.666,0.072,3.666,2.772C103.308,218.635,101.667,221.771,99.642,222.941 M106.834,206.071
				c0-0.971-0.591-1.419-1.32-0.998c-0.729,0.421-1.32,1.55-1.32,2.522c0,0.971,0.591,1.419,1.32,0.998
				C106.243,208.173,106.834,207.043,106.834,206.071"/>
		</g>
		<g>
			<path style="fill:#27DEBF;" d="M168.413,113.513c0-2.841-1.994-6.295-4.454-7.715l-3.627-2.094c-2.46-1.421-6.449-1.421-8.909,0
				l-28.699,16.57c-1.276,0.737-2.424,2.023-3.237,3.485c-0.655,1.18-1.093,2.474-1.195,3.691c-0.015,0.182-0.023,0.362-0.023,0.539
				v33.139c0,2.841,1.995,6.295,4.454,7.715l3.627,2.094c0.147,0.085,0.299,0.164,0.456,0.238c0.057,0.027,0.116,0.05,0.174,0.076
				c0.101,0.045,0.203,0.09,0.307,0.13c0.077,0.03,0.156,0.057,0.235,0.084c0.088,0.031,0.175,0.062,0.264,0.09
				c0.094,0.03,0.19,0.056,0.286,0.083c0.074,0.021,0.148,0.041,0.223,0.06c0.114,0.029,0.228,0.054,0.344,0.079
				c0.055,0.012,0.11,0.023,0.166,0.033c0.137,0.027,0.276,0.05,0.416,0.071c0.026,0.004,0.052,0.007,0.078,0.011
				c2.069,0.293,4.344-0.023,5.96-0.956l28.699-16.57c2.46-1.42,4.455-4.874,4.455-7.715L168.413,113.513z"/>
			<path style="opacity:0.4;fill:#FFFFFF;" d="M132.109,130.836c-0.504,0.872-0.887,1.814-1.104,2.745
				c0.564-2.419,2.256-4.916,4.254-6.07l28.699-16.57c2.46-1.42,4.454-0.269,4.454,2.572c0-2.841-1.994-6.295-4.454-7.715
				l-3.627-2.094c-2.46-1.421-6.449-1.421-8.909,0l-28.699,16.57c-1.276,0.737-2.424,2.023-3.237,3.485
				c0.029-0.053,0.056-0.107,0.087-0.16L132.109,130.836z"/>
			<path style="opacity:0.1;" d="M134.336,171.358c-0.072,0.024-0.141,0.04-0.212,0.059c-0.007,0.002-0.015,0.004-0.022,0.006
				c-0.119,0.032-0.236,0.057-0.351,0.075c-0.009,0.002-0.019,0.003-0.028,0.004c-0.114,0.017-0.226,0.029-0.335,0.033
				c-0.008,0-0.016,0-0.024,0.001c-0.111,0.004-0.22,0.002-0.326-0.007c-0.001,0-0.002,0-0.003,0
				c-0.429-0.039-0.813-0.184-1.136-0.427c-0.012-0.009-0.025-0.016-0.037-0.026c-0.057-0.045-0.11-0.096-0.163-0.147
				c-0.029-0.028-0.06-0.055-0.088-0.085c-0.044-0.047-0.085-0.099-0.126-0.151c-0.032-0.041-0.064-0.082-0.095-0.125
				c-0.035-0.051-0.068-0.104-0.1-0.158c-0.031-0.052-0.061-0.106-0.089-0.162c-0.027-0.054-0.053-0.109-0.078-0.166
				c-0.028-0.064-0.053-0.13-0.077-0.198c-0.02-0.057-0.04-0.113-0.058-0.172c-0.023-0.077-0.042-0.157-0.061-0.238
				c-0.013-0.057-0.028-0.113-0.039-0.173c-0.018-0.095-0.03-0.194-0.042-0.295c-0.006-0.052-0.015-0.102-0.02-0.155
				c-0.014-0.157-0.022-0.318-0.022-0.487l0-33.139c0-0.349,0.031-0.708,0.088-1.07c0.001-0.006,0.001-0.012,0.002-0.019
				c0.021-0.133,0.051-0.267,0.079-0.401c0.011-0.052,0.019-0.103,0.031-0.155c0.217-0.931,0.601-1.872,1.104-2.745l-12.536-7.238
				c-0.03,0.052-0.057,0.107-0.087,0.16c-0.655,1.18-1.093,2.474-1.195,3.691c-0.015,0.182-0.023,0.362-0.023,0.539v33.139
				c0,2.841,1.995,6.295,4.454,7.715l3.627,2.094c0.147,0.085,0.299,0.163,0.456,0.238c0.057,0.027,0.116,0.05,0.174,0.076
				c0.101,0.045,0.203,0.09,0.307,0.13c0.077,0.03,0.156,0.057,0.235,0.084c0.087,0.031,0.175,0.062,0.264,0.09
				c0.094,0.03,0.19,0.057,0.286,0.083c0.074,0.021,0.148,0.041,0.223,0.06c0.114,0.028,0.228,0.054,0.344,0.079
				c0.055,0.012,0.11,0.023,0.166,0.033c0.137,0.026,0.276,0.051,0.416,0.071c0.026,0.004,0.052,0.007,0.078,0.011
				C131,172.13,132.836,171.949,134.336,171.358z"/>
			<path id="XMLID_73_" style="fill:#FFFFFF;" d="M146.509,159.315l4.788-2.764v-15.985l3.34-1.929l0.356-5.558l-3.697,2.134
				c0,0,0-1.998,0-3.049c0-1.262,0.19-1.87,1.105-2.398c0.736-0.425,2.591-1.496,2.591-1.496v-5.555c0,0-2.732,1.577-3.315,1.914
				c-3.563,2.057-5.169,5.076-5.169,9.081c0,3.489,0,4.267,0,4.267l-2.49,1.438v5.419l2.49-1.438V159.315z"/>
		</g>
	</g>
</g>
<g id="Device">
	<g id="MÓVIL">
		<path id="sombra_móvil" style="fill:#E0E0E0;" d="M103.56,367.99l114.73,66.221c2.401,1.387,6.295,1.387,8.696,0l178.928-103.282
			c2.401-1.387,2.401-3.634,0-5.021l-114.732-66.241c-2.401-1.387-6.294-1.387-8.696,0L103.559,362.971
			C101.158,364.357,101.158,366.605,103.56,367.99z"/>
		<g id="XMLID_133_">
			<g>
				<path id="XMLID_174_" style="fill:#37474F;" d="M107.166,352.023l111.487,64.364c2.427,1.402,6.363,1.402,8.79,0L404.19,314.342
					c2.427-1.401,2.427-3.673,0-5.075l-111.488-64.365c-2.427-1.402-6.363-1.402-8.79,0L107.166,346.948
					C104.739,348.349,104.739,350.621,107.166,352.023z"/>
				<path id="XMLID_160_" style="fill:#455A64;" d="M218.654,416.387l-111.487-64.364c-2.17-1.253-2.394-3.201-0.683-4.601
					c-2.1,1.594-3.712,4.606-3.712,7.139v4.132c0,2.803,1.968,6.211,4.395,7.613l111.487,64.364
					c1.213,0.701,2.804,1.052,4.395,1.052v-14.283C221.458,417.439,219.867,417.088,218.654,416.387z"/>
				<path id="XMLID_159_" style="fill:#263238;" d="M404.189,328.624c2.428-1.401,4.395-4.809,4.395-7.611v-4.134
					c0-2.534-1.614-5.548-3.716-7.141c1.717,1.401,1.495,3.35-0.678,4.604L227.444,416.387c-1.214,0.701-2.805,1.052-4.395,1.052
					v14.283c1.59,0,3.181-0.351,4.395-1.052L404.189,328.624z"/>
			</g>
			<path id="XMLID_161_" style="fill:#263238;" d="M167.037,381.732c3.372,1.947,8.838,1.947,12.209,0
				c3.372-1.947,3.372-5.102,0-7.049s-8.838-1.947-12.209,0C163.666,376.63,163.666,379.786,167.037,381.732z"/>
			<path id="XMLID_157_" style="fill:#FFFFFF;" d="M236.039,402.733l-106.745-61.656c-1.456-0.841-1.456-2.204,0-3.045
				l138.982-80.277c1.457-0.842,3.818-0.842,5.274-0.001l106.723,61.642c1.456,0.841,1.456,2.204,0,3.045l-138.96,80.292
				C239.856,403.574,237.495,403.574,236.039,402.733z"/>
			<path id="XMLID_156_" style="fill:#263238;" d="M340.378,281.606c0.853,0.494,2.238,0.493,3.092,0
				c0.854-0.493,0.854-1.293,0-1.785c-0.853-0.493-2.238-0.493-3.092,0C339.523,280.314,339.523,281.114,340.378,281.606z"/>
			<g id="XMLID_153_">
				<path id="XMLID_155_" style="fill:#263238;" d="M345.319,295.628c1.708,0.986,4.476,0.986,6.184,0
					c1.708-0.986,1.708-2.585,0-3.57c-1.708-0.986-4.476-0.986-6.184,0C343.611,293.043,343.611,294.642,345.319,295.628z"/>
				<path id="XMLID_154_" style="fill:#263238;" d="M340.958,289.414c1.139-0.657,1.078-1.757-0.136-2.458l-20.343-11.745
					c-1.213-0.701-3.12-0.737-4.259-0.079c-1.138,0.658-1.078,1.758,0.136,2.459l20.344,11.745
					C337.914,290.037,339.821,290.072,340.958,289.414z"/>
			</g>
			<path id="XMLID_150_" style="fill:#EBEBEB;" d="M266.486,274.327c-1.457,0.842-1.457,2.204,0,3.045l81.308,46.943
				c1.456,0.842,3.818,0.842,5.275,0.002l17.978-10.366l-86.572-50.003L266.486,274.327z"/>
			<path id="XMLID_147_" style="fill:#EBEBEB;" d="M267.092,282.483l-6.488-3.745c-0.486-0.28-1.273-0.28-1.757,0l-4.09,2.36
				c-0.485,0.28-0.485,0.734,0,1.015l0.568,0.328l-2.071,1.096c-0.248,0.131-0.222,0.216,0.058,0.189l3.64-0.347l4.297,2.48
				c0.486,0.28,1.273,0.28,1.758,0l4.086-2.361C267.577,283.218,267.577,282.763,267.092,282.483z"/>
			<path id="XMLID_145_" style="fill:#EBEBEB;" d="M268.958,292.237l-0.474-0.995c-0.624-1.311-0.991-3.091,0.799-4.124
				c1.214-0.701,3.182-0.701,4.395,0c0.946,0.546,1.155,1.356,0.627,2.018c1.147-0.304,2.55-0.183,3.496,0.362
				c1.213,0.702,1.213,1.838,0,2.538c-1.758,1.015-4.839,0.814-7.115,0.467L268.958,292.237z"/>
			<path id="XMLID_143_" style="fill:#EBEBEB;" d="M179.901,327.361l81.312,46.944c1.456,0.841,3.817,0.841,5.274,0l63.32-36.565
				c1.456-0.841,1.456-2.203,0-3.045l-81.31-46.943c-1.457-0.841-3.818-0.841-5.274,0l-63.322,36.564
				C178.445,325.157,178.445,326.521,179.901,327.361z"/>
			<path id="XMLID_142_" style="fill:#EBEBEB;" d="M180.515,332.469l-6.488-3.746c-0.486-0.28-1.273-0.28-1.758,0l-4.089,2.361
				c-0.486,0.28-0.486,0.734,0,1.015l0.568,0.327l-2.071,1.097c-0.248,0.131-0.223,0.216,0.057,0.189l3.64-0.348l4.298,2.481
				c0.485,0.281,1.272,0.281,1.758,0l4.086-2.361C181.001,333.204,181.001,332.749,180.515,332.469z"/>
			<path id="XMLID_141_" style="fill:#EBEBEB;" d="M182.381,342.224l-0.474-0.996c-0.623-1.31-0.99-3.091,0.8-4.123
				c1.213-0.701,3.181-0.701,4.395,0c0.946,0.546,1.154,1.356,0.626,2.018c1.148-0.304,2.551-0.183,3.497,0.362
				c1.214,0.701,1.213,1.837,0,2.538c-1.757,1.014-4.839,0.814-7.115,0.466L182.381,342.224z"/>
			<path id="XMLID_138_" style="fill:#EBEBEB;" d="M156.651,337.739c1.457-0.841,3.818-0.841,5.274,0l81.309,46.944
				c1.456,0.841,1.456,2.204,0,3.045l-16.589,9.578l-86.565-50L156.651,337.739z"/>
			<path id="XMLID_136_" style="fill:#E0E0E0;" d="M246.974,326.928l-46.281,12.437l0.005,0.003l60.514,34.938
				c1.456,0.841,3.817,0.841,5.274,0l1.313-0.759l26.105-38.311l-55.441,10.887L246.974,326.928z"/>
			<path id="XMLID_134_" style="fill:#E0E0E0;" d="M269.794,300.047l-21.297-12.295c-1.457-0.841-3.818-0.841-5.274,0l-23.8,13.743
				c1.091,2.079,3.338,4.047,6.748,5.673c10.027,4.78,26.284,4.78,36.311,0C266.675,305.17,269.109,302.651,269.794,300.047z"/>
		</g>
		<g id="XMLID_124_">
			<path id="XMLID_125_" style="opacity:0.2;fill:#FFFFFF;" d="M372.464,295.723l-106.723-61.642c-1.456-0.841-3.818-0.841-5.274,0
				l-138.982,80.278c-1.457,0.84-1.457,2.204,0,3.045l22.556,13.029l84.189,48.627c1.456,0.842,3.817,0.842,5.274,0l125.112-72.29
				l13.848-8.002C373.92,297.928,373.92,296.565,372.464,295.723z"/>
			<path style="fill:#FFFFFF;" d="M372.717,295.284l-88.24-50.967l-18.483-10.675c-1.62-0.935-4.158-0.936-5.782,0L121.231,313.92
				c-0.868,0.501-1.346,1.197-1.346,1.962c0,0.764,0.478,1.461,1.346,1.962l22.556,13.029l84.189,48.627
				c0.81,0.469,1.851,0.703,2.891,0.703c1.04,0,2.08-0.234,2.891-0.703l125.111-72.29l13.848-8.002
				c0.867-0.5,1.346-1.197,1.346-1.961C374.063,296.483,373.586,295.786,372.717,295.284z M372.21,298.329l-13.848,8.002
				l-125.112,72.29c-1.293,0.746-3.475,0.746-4.766,0l-84.189-48.627l-22.556-13.029c-0.533-0.308-0.839-0.703-0.839-1.083
				c0-0.381,0.306-0.775,0.839-1.083l138.982-80.277c1.294-0.747,3.475-0.746,4.767,0l18.483,10.675l88.24,50.966
				c0.533,0.308,0.839,0.704,0.839,1.084C373.048,297.626,372.742,298.021,372.21,298.329z"/>
		</g>
	</g>
</g>
<g id="Speech_Bubble">
	<g>
		<path id="XMLID_44_" style="fill:#27DEBF;" d="M324.568,45.739c1.476-0.852,2.672-0.161,2.672,1.543V243.87
			c0,1.704-1.197,3.777-2.672,4.629l-76.723,44.297l-8.965,30.047c-0.812,2.722-2.427,2.834-3.607,0.249l-8.322-18.234l-22.4,12.932
			c-1.476,0.852-2.673,0.162-2.673-1.543V119.659c0-1.704,1.197-3.777,2.673-4.629L324.568,45.739z"/>
		<path id="XMLID_43_" style="fill:#FFFFFF;" d="M314.77,197.501c0,2.266-1.695,5.08-3.785,6.287l-42.156,24.338
			c-2.091,1.208-3.786,0.35-3.786-1.916c0-2.265,1.696-5.08,3.786-6.287l42.155-24.337
			C313.075,194.379,314.77,195.237,314.77,197.501z"/>
		<path id="XMLID_42_" style="fill:#FFFFFF;" d="M307.04,221.814c0.001,2.265-1.695,5.08-3.785,6.287l-35.052,20.237
			c-2.091,1.207-3.786,0.35-3.786-1.916c0-2.265,1.696-5.08,3.786-6.287l35.051-20.236
			C305.345,218.692,307.04,219.549,307.04,221.814z"/>
		<g id="XMLID_38_">
			<path id="XMLID_39_" style="fill:#FFFFFF;" d="M243.85,256.394l-0.093-1.186c-1.906,4.821-4.789,8.283-7.997,10.135
				c-5.672,3.275-10.739,0.372-10.739-8.308c0-8.185,4.045-17.154,10.228-20.724c4.091-2.362,6.882-0.624,7.346,0.409
				c0,0,0-0.902,0-2.015c0-1.113,1.124-2.664,2.511-3.465c1.387-0.8,2.511-0.067,2.511,1.637v18.553
				c0,2.356,0.884,2.838,2.139,2.114c2.279-1.316,4.371-6.926,4.371-13.312c0-12.339-6.463-18.094-16.785-12.135
				c-9.67,5.583-17.342,19.685-17.342,31.961c0,12.091,7.253,16.707,16.737,11.232c2.147-1.24,4.834-3.512,7.148-6.35
				c1.077-1.321,2.251-1.721,2.777-0.776c0.527,0.946,0.202,2.874-0.871,4.198c-2.698,3.328-6.221,6.438-9.054,8.074
				c-11.808,6.817-20.735,0.872-20.735-14.071c0-15.253,9.345-32.367,21.34-39.292c11.948-6.898,20.782-0.775,20.782,14.664
				c0,9.362-3.673,17.558-8.88,20.564C246.407,259.939,244.361,259.57,243.85,256.394z M230.46,253.584
				c0,4.774,2.325,7.4,5.858,5.36c3.673-2.121,5.95-7.279,5.95-12.115c0-4.65-2.371-7.002-6.044-4.881
				C232.785,243.933,230.46,248.996,230.46,253.584z"/>
		</g>
	</g>
</g>
<g id="Character">
	<g>
		<path id="XMLID_25_" style="fill:#FFFFFF;" d="M264.559,109.004c20.707-11.955,37.493-2.263,37.493,21.646
			s-16.786,52.984-37.492,64.939c-20.707,11.955-37.493,2.263-37.493-21.646S243.853,120.959,264.559,109.004z"/>
		<g id="XMLID_7_">
			<defs>
				<path id="XMLID_8_" d="M264.559,109.004c20.707-11.955,37.493-2.263,37.493,21.646s-16.786,52.984-37.492,64.939
					c-20.707,11.955-37.493,2.263-37.493-21.646S243.853,120.959,264.559,109.004z"/>
			</defs>
			<use xlink:href="#XMLID_8_"  style="overflow:visible;fill:#F5F5F5;"/>
			<clipPath id="XMLID_00000142177853312260843390000009966264080939281052_">
				<use xlink:href="#XMLID_8_"  style="overflow:visible;"/>
			</clipPath>
			<g id="XMLID_9_" style="clip-path:url(#XMLID_00000142177853312260843390000009966264080939281052_);">
				<g id="XMLID_17_">
					<path id="XMLID_24_" style="fill:#263238;" d="M250.89,140.751c0,0-2.407,0.233-4.284,2.655
						c-1.84,2.375-1.458,5.756,0.003,13.369l5.687-0.871L250.89,140.751z"/>
					<path id="XMLID_23_" style="fill:#263238;" d="M284.051,129.55c0,0,2.298-0.614,3.558-1.676
						c1.746-1.47,2.202,0.391,1.245,2.371c-0.956,1.98-2.744,4.704-6.598,6.163c-0.051-0.234-1.633-4.005-1.633-4.005
						L284.051,129.55z"/>
					<path id="XMLID_22_" style="fill:#263238;" d="M254.161,180.001c0,0-10.597,6.84-12.901,9.253
						c-2.304,2.413-3.251,9.918-4.1,19.106c0,0,12.069,5.09,31.012-4.282c18.942-9.372,20.641-16.782,20.641-16.782
						s-2.447-11.128-3.357-14.213c-1.154-3.915-3.375-6.732-16.288-0.876L254.161,180.001z"/>
					<path id="XMLID_21_" style="fill:#FFA8A7;" d="M253.558,155.569c-0.844,0.73-2.048-0.569-3.09-1.379
						c-1.041-0.811-4.44-1.388-6.136,2.639c-1.728,4.104,2.195,7.895,4.499,8.879c2.737,1.168,4.728-0.857,4.728-0.857l0.603,15.151
						c0,0,3.021,5.192,11.197,4.109c8.178-1.083,6.494-9.319,3.809-11.904l-0.013-3.114c0,0,4.224-0.281,6.217-1.347
						c1.066-0.57,3.611-4.328,5.252-8.209c1.844-4.358,4.911-12.04,2.18-22.911c-2.933-11.678-16.322-8.471-24.306-1.306
						C250.514,142.485,253.558,155.569,253.558,155.569z"/>
					<path style="fill:#263238;" d="M286.356,117.826c-0.719-2.351-1.152-1.937-6.945,2.131c-5.793,4.069-10.337,5.542-14.581,6.832
						c-4.078,1.24-9.656,2.225-12.535,6.015c-1.528,2.012-1.83,4.127-1.777,5.669c-0.234-0.22-0.522-0.386-0.861-0.477
						c-1.411-0.379-3.14,0.657-3.865,2.314l4.97,1.336c-0.396,2.874-1.514,11.762-0.295,12.545c1.051,0.674,2.666,2.921,3.091,2.8
						c1.427-0.41,2.041-6.747,2.783-10.587c0.845-4.375,1.18-5.982,2.746-6.188c1.151-0.151,9.566-1.622,14.969-3.727
						c5.403-2.106,6.956-3.899,6.956-3.899l2.875-1.828C287.344,125.931,287.074,120.177,286.356,117.826z"/>
					<path id="XMLID_18_" style="fill:#F28F8F;" d="M269.154,169.093c0,0-7.571,0.503-10.218-0.194
						c-1.772-0.467-3.231-1.708-3.66-2.64c0,0,0.496,2.114,2.079,3.713c1.936,1.956,11.798,1.136,11.798,1.136V169.093z"/>
				</g>
				<g id="XMLID_10_">
					<path id="XMLID_14_" style="fill:#F28F8F;" d="M267.22,160.303l3.464,0.371c-0.342,1.085-1.395,1.881-2.353,1.778
						C267.374,162.35,266.877,161.387,267.22,160.303z"/>
					<polygon id="XMLID_11_" style="fill:#F28F8F;" points="272.223,146.804 272.721,155.795 277.485,152.895 					"/>
					<g>
						<path id="XMLID_16_" style="fill:#263238;" d="M267.334,149.985c0,0.871-0.679,1.757-1.518,1.979
							c-0.838,0.222-1.517-0.303-1.517-1.174c0-0.871,0.679-1.757,1.517-1.979C266.655,148.589,267.334,149.114,267.334,149.985z"/>
						<path id="XMLID_15_" style="fill:#263238;" d="M265.725,144.688l-3.246,2.661c-0.478-0.805-0.14-2.053,0.756-2.787
							C264.132,143.827,265.247,143.883,265.725,144.688z"/>
						<path id="XMLID_13_" style="fill:#263238;" d="M280.864,141.894l-2.96-1.486c0.603-1.009,1.755-1.495,2.573-1.084
							C281.294,139.734,281.467,140.885,280.864,141.894z"/>
						<path id="XMLID_12_" style="fill:#263238;" d="M279.953,146.172c0,0.87-0.68,1.757-1.518,1.979
							c-0.838,0.223-1.517-0.303-1.517-1.174s0.679-1.757,1.517-1.979C279.273,144.775,279.953,145.301,279.953,146.172z"/>
					</g>
				</g>
			</g>
		</g>
	</g>
</g>
</svg>
